<?xml version="1.0" standalone="no"?><!DOCTYPE svg PUBLIC "-//W3C//DTD SVG 1.1//EN" "http://www.w3.org/Graphics/SVG/1.1/DTD/svg11.dtd"><svg class="icon" width="200px" height="200.00px" viewBox="0 0 1024 1024" version="1.1" xmlns="http://www.w3.org/2000/svg"><path fill="#909399" d="M897.586312 255.98826a30.286688 30.286688 0 0 1 30.250564 30.250563v451.518741a30.286688 30.286688 0 0 1-30.250564 30.250564H126.178879a30.286688 30.286688 0 0 1-30.250563-30.250564V286.238823a30.286688 30.286688 0 0 1 30.250563-30.250563h771.407433m0-31.988147H126.178879A62.23871 62.23871 0 0 0 63.940169 286.238823v451.518741a62.23871 62.23871 0 0 0 62.23871 62.238711h771.407433A62.23871 62.23871 0 0 0 959.825022 737.757564V286.238823a62.23871 62.23871 0 0 0-62.23871-62.23871z"  /><path fill="#909399" d="M633.939682 369.100947a101.361424 101.361424 0 0 0-18.531812-26.370804 34.108648 34.108648 0 0 0-11.086575-7.647533 33.335586 33.335586 0 0 0-13.084253-2.720167h-34.144773A74.271744 74.271744 0 0 0 522.394793 322.229552a73.422821 73.422821 0 0 0-40.459316 10.132891h-33.667931c-15.302291 0-28.093938 2.239712-38.020919 6.563802-9.052772 3.941171-15.894731 9.710236-20.363319 17.097673-2.889951 4.804544-4.56251 11.339446-5.057414 19.9515-0.390143 6.574639-0.093923 14.399182 0.885047 23.235208 1.705071 15.40344 5.144113 30.947764 7.56806 39.574268l0.505741 1.80622c2.145789 7.669208 5.386146 19.261524 10.010069 29.889319 6.054448 13.918727 12.914469 22.675279 20.952145 26.771785a23.148509 23.148509 0 0 0 9.518777 2.553994q0.505741 0.021675 1.011483 0.021675a25.214824 25.214824 0 0 0 9.341767-1.867631 30.45286 30.45286 0 0 0 15.602124-14.193272l2.051865-3.901434q1.174043 1.083732 2.431171 2.087989a61.154979 61.154979 0 0 0 11.534518 7.28629 71.165047 71.165047 0 0 1-9.204495 6.408466c-0.307057 0.180622-0.624952 0.361244-0.939234 0.538254a14.424469 14.424469 0 0 0-7.149016 14.630377 14.20411 14.20411 0 0 0 10.79758 12.069159 59.00919 59.00919 0 0 0 13.532196 1.578636 57.600339 57.600339 0 0 0 6.697462-0.390144 58.637109 58.637109 0 0 0 12.600187-2.911626v20.273008a36.351973 36.351973 0 0 0 2.752678 13.929564 35.763145 35.763145 0 0 0 7.481361 11.371958 34.657739 34.657739 0 0 0 11.0938 7.629471 33.895514 33.895514 0 0 0 13.589995 2.788803h0.039737a33.956926 33.956926 0 0 0 13.579158-2.763516 34.711926 34.711926 0 0 0 11.10825-7.647533 35.712571 35.712571 0 0 0 7.499423-11.368346 36.301399 36.301399 0 0 0 2.763516-13.936789v-25.735015c1.231842 0.086699 2.528707 0.130048 3.785836 0.130048a63.752322 63.752322 0 0 0 18.318677-2.79964 85.567841 85.567841 0 0 0 22.176763-10.476073 11.70069 11.70069 0 0 0 5.057415-11.989685 11.462269 11.462269 0 0 0-9.031098-9.251456 87.247625 87.247625 0 0 1-21.468724-7.091218l37.930608-51.838498a51.932422 51.932422 0 0 0 4.688946-53.287087z m-194.710458 114.658812c-2.940525 1.17043-5.368084 1.123469-7.871504-0.14811-3.27287-1.665334-8.355571-6.36873-13.994589-19.322936-4.197654-9.648824-7.264615-20.619801-9.294805-27.880804l-0.512966-1.827894a256.772159 256.772159 0 0 1-7.083993-37.070848c-2.528707-22.89925 0.59244-31.005563 2.051865-33.425897 2.810477-4.652821 7.362151-8.402533 13.528584-11.086576 8.084638-3.518516 18.91473-5.33196 32.208505-5.331959h16.082578c-8.467557 10.3677-13.857316 23.480853-15.764683 38.400225-0.411818 3.215071-0.722488 6.567414-0.899497 9.955882l-0.032512 0.205909v56.736966l0.046961 0.28177c0.050574 0.693588 0.588828 6.480715 4.446913 13.727268l-5.028515 9.572963a15.40344 15.40344 0 0 1-7.878729 7.214041z m27.241402-21.916667a27.205278 27.205278 0 0 1-3.941171-9.616313v-48.309145H474.313231a10.996264 10.996264 0 0 0-0.155335 1.806219c0 5.180237 4.100118 9.421241 9.157533 9.421241s9.157533-4.183204 9.157532-9.363442c0-0.307057 0-0.60689-0.043349-0.910335a16.255975 16.255975 0 0 1 10.895116 15.428727v10.898728a76.128538 76.128538 0 0 1-9.703011 37.28037 73.946625 73.946625 0 0 1-6.061673 9.135858 50.371848 50.371848 0 0 1-13.178177-7.246552 35.156256 35.156256 0 0 1-7.907629-8.525356z m21.815519 47.098978a43.746635 43.746635 0 0 1-13.149278-0.469617 86.517912 86.517912 0 0 0 16.053679-12.38344 26.732048 26.732048 0 0 1 8.496456 9.945044 45.108525 45.108525 0 0 1-11.400857 2.911626z m69.290191-2.041028v34.552979a20.52949 20.52949 0 0 1-5.888276 14.47143 19.64083 19.64083 0 0 1-14.178823 5.953299h-0.018062a19.615543 19.615543 0 0 1-14.171598-5.964136 20.52949 20.52949 0 0 1-5.873825-14.449756V518.384986c0-13.550258-6.245907-25.944536-16.367961-33.769079a89.321165 89.321165 0 0 0 5.418658-8.500069 91.680087 91.680087 0 0 0 11.689853-44.902616v-10.905953a31.984534 31.984534 0 0 0-2.423947-12.257005 31.428219 31.428219 0 0 0-6.585476-10.006456 30.745468 30.745468 0 0 0-9.753585-6.791385 29.983243 29.983243 0 0 0-11.964398-2.528708h-24.203341c0.0289-0.205909 0.057799-0.44433 0.090311-0.686363 1.083732-8.539806 3.558252-16.255975 7.318802-22.985949a52.22503 52.22503 0 0 1 13.488847-15.775521c10.3677-8.099088 23.748173-12.253393 37.677738-11.700689s26.89822 5.732941 36.594006 14.597865a52.18168 52.18168 0 0 1 12.224493 16.711143 61.884691 61.884691 0 0 1 5.277773 19.843127h-6.863634a28.574392 28.574392 0 0 0-20.551165 8.771002 30.019367 30.019367 0 0 0-8.510906 21.082193 75.536098 75.536098 0 0 0 6.108635 29.892932 73.180788 73.180788 0 0 0 17.372218 24.828293q2.564832 2.402272 5.321123 4.580573c-0.054187 0.057799-0.097536 0.122823-0.14811 0.180622a42.854363 42.854363 0 0 0-11.075738 28.841712z m2.615405-99.63829a9.229781 9.229781 0 0 0 9.031098 7.925691 9.031097 9.031097 0 0 0 6.990069-3.323444l-0.028899 40.845847v0.455167a42.493119 42.493119 0 0 1-0.657464 10.718107q-1.047607-0.90311-2.051866-1.845957c-11.837962-11.061288-18.625735-26.890995-18.625735-43.435965a14.64844 14.64844 0 0 1 5.34641-11.335834z m30.192765 91.145447c-5.935237 1.77732-11.693465 2.467296-17.187984 2.069927a27.454536 27.454536 0 0 1 6.347055-12.047484c0.614115-0.682751 1.246291-1.423301 1.874856-2.22165a97.01566 97.01566 0 0 0 19.597481 7.947366 66.692847 66.692847 0 0 1-10.631408 4.26629z m33.769079-103.362715a36.124389 36.124389 0 0 1-6.81306 18.181405l-26.255206 35.875131 0.0289-52.52125a38.425513 38.425513 0 0 0-0.075862-5.010453v-0.025287c-0.820024-17.065161-6.426529-32.074845-16.136764-43.876683h16.331836a18.809969 18.809969 0 0 1 7.383825 1.535287 19.200113 19.200113 0 0 1 6.260357 4.302414 86.181955 86.181955 0 0 1 15.746621 22.397122 36.395322 36.395322 0 0 1 3.529353 19.145926zM169.13439 665.158379h-29.444989v38.768695h-11.776551v-99.128937h42.204124q31.894223 1.473875 34.350682 28.953698-0.494904 30.915252-35.333266 31.406544z m-1.961554-51.043762h-27.483435v41.221541h27.479823q25.511044 0 25.518268-21.591548-0.986196-19.131477-25.514656-19.629993zM251.577472 629.825114q32.389127 1.470263 33.85939 38.291853-0.494904 36.803528-35.333265 37.294819-32.873194-1.965167-34.841974-36.80714 1.484712-37.793336 36.315849-38.779532zM250.598501 697.561957q23.06181-0.978971 23.556714-29.44499-0.989808-27.971115-23.556714-29.44499-22.577743 0.989808-23.556715 29.936282 0.978971 26.981306 23.556715 28.953698zM355.124421 648.963816l-11.285259 1.961554q-3.439042-12.755522-17.664827-12.759134-16.689468 0.494904-17.177147 12.282292-1.473875 8.832413 20.121285 12.282292h0.982584a37.999245 37.999245 0 0 1 6.863634 1.961555q21.587935 4.909304 21.100255 19.629993-0.494904 20.12851-29.936281 20.612576-27.971115 0.978971-32.873194-21.100255l10.79758-2.452846q2.944138 16.689468 21.591547 16.194563t19.145926-13.250426q0.978971-8.832413-15.21198-12.282292h-1.473875a60.32773 60.32773 0 0 1-6.863634-1.961554q-26.00956-4.418013-25.026977-19.629994 0.978971-19.622768 26.992144-20.608964 25.008915-0.018062 29.918219 19.12064zM388.983811 605.780721v26.00956h15.703272V640.124178h-15.703272v46.618524q-0.494904 11.296097 8.341122 10.79758c2.944138 0 5.230812-0.491292 6.863633-1.473875l1.961555 5.888275q-4.418013 2.944138-12.282293 2.944138-16.194564 0.484067-15.703272-16.685855V640.124178h-11.77655v-8.341122h11.77655v-22.574131zM467.995075 631.298989h10.79758v62.325409q1.954329 37.782499-35.333265 35.824557-21.103868-0.494904-28.953698-15.21198l9.323705-2.452846q6.863634 8.337509 20.612576 8.832413 24.037169 0.484067 23.556715-22.574131v-9.814997q-6.38318 12.766359-25.518269 12.759135-29.939894-0.989808-30.423961-34.841974 0.978971-34.838361 31.406544-36.315848 17.664826 0 24.535686 13.250426v-11.776551z m0 37.786111v-8.832413q-1.470263-20.117672-21.100256-21.591547-22.577743 0.989808-23.556714 27.479823 0.484067 26.995756 22.574131 27.479823 21.587935-0.484067 22.082839-24.535686zM506.76377 665.158379v38.291853h-10.79758v-71.663563h10.79758v13.250426q5.393371-14.724301 19.145926-15.211981a27.66767 27.66767 0 0 1 13.250426 3.43543l-4.418013 10.306288q-3.933946-3.428205-10.79758-3.43543-16.696693 0.989808-17.180759 25.026977zM600.983402 681.844235l11.776551 1.961554q-6.863634 21.598772-33.371711 21.100256-35.333265-1.473875-36.315849-36.315849 1.473875-37.287595 35.333266-38.768694 33.85939 0.494904 34.350681 39.259986v2.470908H554.870619q0.978971 24.051618 24.044393 25.518269 18.629348-0.498517 22.06839-15.22643zM554.870619 663.196825h46.600462q-0.494904-24.037169-23.065422-24.535685-22.090064 1.463038-23.53504 24.535685zM624.540116 674.482084l11.776551-3.435429q2.944138 26.00956 30.423961 25.518268 24.532073-0.484067 26.00956-19.145926 1.473875-13.250426-25.026977-19.145926a1.390789 1.390789 0 0 1-0.982583-0.491292q-1.470263-0.484067-5.396984-1.473875-34.849198-5.888275-33.371711-26.500852 1.473875-25.511044 35.333265-26.500852 33.85939 0 39.259986 26.500852l-12.282292 2.944138q-3.439042-19.622768-26.00956-20.121285-22.082839 0.989808-24.044394 17.177147-1.473875 12.282292 26.500852 17.664826c0.982583 0 2.286674 0.328732 3.926721 0.982584 1.961554 0.328732 3.251195 0.661076 3.926721 0.982583q31.894223 7.857055 30.423961 27.971115-1.965167 26.995756-37.294819 27.971114-36.79269 0.997033-43.172258-30.89719zM778.141019 703.435782l23.556714 22.574131-13.250426 3.926721-22.086451-25.511044Q719.23659 702.944491 717.791614 654.852091q1.954329-49.562662 48.583692-51.527829 44.649745 2.944138 47.601107 51.036537-1.000646 39.751278-35.835394 49.074983z m-48.583691-49.074983q1.470263 39.267211 35.333265 41.221541 35.333265-1.473875 36.315849-41.221541-1.965167-38.76147-35.824557-41.22154-33.863002 2.944138-35.824557 41.22154zM895.917365 703.927074h-65.269546v-99.128937h11.285259v90.310973h53.980675v8.832414z"  /></svg>