<?xml version="1.0" standalone="no"?><!DOCTYPE svg PUBLIC "-//W3C//DTD SVG 1.1//EN" "http://www.w3.org/Graphics/SVG/1.1/DTD/svg11.dtd"><svg class="icon" width="200px" height="200.00px" viewBox="0 0 1024 1024" version="1.1" xmlns="http://www.w3.org/2000/svg"><path fill="#ffffff" d="M528 1008l0-304c0-8.832-4.256-32-13.088-32s-18.912 7.168-18.912 16l0 320c0 8.832 10.048 16 18.912 16s13.088-7.168 13.088-16zM530.912 49.984l0-33.984c0-8.832-7.168-16-16-16s-16 7.168-16 16l0 33.984c0 8.832 7.168 16 16 16s16-7.136 16-16zM172.48 111.072l-114.144 89.536c-6.56 6.048-10.336 14.592-10.336 23.392s3.776 17.344 11.328 24.256l112.16 87.84c9.824 9.056 27.328 15.904 40.736 15.904l442.496 0c18.336 0 33.28-14.816 33.28-33.056l0-189.888c0-18.24-14.944-33.056-33.28-33.056l-442.496 0c-13.408 0-30.912 6.848-39.744 15.072zM656 318.944c0 0.48-0.576 1.056-1.28 1.056l-442.496 0c-5.44 0-15.072-3.744-20-8.256l-113.152-86.816 114.112-89.536c4-3.648 13.6-7.392 19.04-7.392l443.776 1.056 0 189.888zM852.512 399.904c-9.824-9.056-27.328-15.904-40.736-15.904l-442.496 0c-18.336 0-33.28 14.816-33.28 33.056l0 189.92c0 18.208 14.944 33.024 33.28 33.024l442.496 0c13.408 0 30.912-6.848 39.776-15.072l114.112-89.536c6.56-6.048 10.336-14.592 10.336-23.392s-3.776-17.344-11.328-24.256l-112.16-87.84zM368 416l443.776 0c5.44 0 15.072 3.744 20 8.256l113.152 86.816-114.112 89.536c-4 3.648-13.6 7.392-19.04 7.392l-443.776 0 0-192z" /></svg>